<svg width="350" height="99" viewBox="0 0 350 99" fill="none" xmlns="http://www.w3.org/2000/svg">
<g clip-path="url(#clip0_12_2)">
<path d="M24.9666 23.976C28.1666 23.976 30.5986 24.36 32.2626 25.128C33.9266 25.832 35.3986 26.632 36.6786 27.528C37.4466 27.976 38.0546 28.328 38.5026 28.584C39.0146 28.776 39.4946 28.872 39.9426 28.872C40.5826 28.872 41.0306 28.52 41.2866 27.816C41.6066 27.112 41.8626 26.056 42.0546 24.648H44.2626C44.1986 25.736 44.1026 27.048 43.9746 28.584C43.9106 30.056 43.8466 32.04 43.7826 34.536C43.7826 36.968 43.7826 40.2 43.7826 44.232H41.5746C41.3826 41.16 40.7106 38.216 39.5586 35.4C38.4066 32.584 36.7106 30.28 34.4706 28.488C32.2946 26.696 29.4146 25.8 25.8306 25.8C22.4386 25.8 19.6226 26.824 17.3826 28.872C15.2066 30.92 14.1186 33.608 14.1186 36.936C14.1186 39.816 14.8546 42.248 16.3266 44.232C17.7986 46.152 19.7506 47.912 22.1826 49.512C24.6786 51.048 27.3666 52.712 30.2466 54.504C33.5746 56.552 36.5186 58.6 39.0786 60.648C41.7026 62.632 43.7506 64.84 45.2226 67.272C46.7586 69.704 47.5266 72.648 47.5266 76.104C47.5266 80.2 46.5986 83.592 44.7426 86.28C42.8866 88.968 40.4226 90.984 37.3506 92.328C34.2786 93.672 30.8866 94.344 27.1746 94.344C23.7826 94.344 21.0946 93.96 19.1106 93.192C17.1266 92.424 15.4306 91.624 14.0226 90.792C12.6146 89.896 11.5266 89.448 10.7586 89.448C10.1186 89.448 9.63863 89.8 9.31863 90.504C9.06263 91.208 8.83863 92.264 8.64663 93.672H6.43863C6.56663 92.328 6.63063 90.76 6.63063 88.968C6.69463 87.112 6.72662 84.712 6.72662 81.768C6.79063 78.824 6.82263 75.112 6.82263 70.632H9.03063C9.28663 74.472 9.99063 78.056 11.1426 81.384C12.3586 84.712 14.1826 87.4 16.6146 89.448C19.1106 91.432 22.4066 92.424 26.5026 92.424C28.6146 92.424 30.5986 92.008 32.4546 91.176C34.3746 90.28 35.9426 88.904 37.1586 87.048C38.3746 85.128 38.9826 82.664 38.9826 79.656C38.9826 77.032 38.3426 74.76 37.0626 72.84C35.8466 70.856 34.1186 69.032 31.8786 67.368C29.6386 65.64 27.0146 63.88 24.0066 62.088C20.9986 60.232 18.1826 58.344 15.5586 56.424C12.9346 54.504 10.8226 52.296 9.22263 49.8C7.68663 47.24 6.91863 44.168 6.91863 40.584C6.91863 36.808 7.75063 33.704 9.41463 31.272C11.1426 28.776 13.3826 26.952 16.1346 25.8C18.8866 24.584 21.8306 23.976 24.9666 23.976ZM44.8386 4.10399L45.3186 5.44799C41.1586 6.856 37.4786 8.712 34.2786 11.016C31.1426 13.32 28.8386 15.688 27.3666 18.12H25.6386C24.1666 15.688 21.8306 13.32 18.6306 11.016C15.4946 8.712 11.8466 6.856 7.68663 5.44799L8.16663 4.10399C12.0066 4.936 15.7826 5.96 19.4946 7.17599C23.2706 8.39199 26.2466 9.60799 28.4226 10.824C30.2786 9.60799 32.7106 8.39199 35.7186 7.17599C38.7266 5.96 41.7666 4.936 44.8386 4.10399ZM82.7736 24.552L106.198 84.936C107.158 87.368 108.246 89 109.462 89.832C110.678 90.6 111.798 91.016 112.822 91.08V93C111.542 92.872 109.974 92.808 108.118 92.808C106.262 92.744 104.406 92.712 102.55 92.712C100.054 92.712 97.7176 92.744 95.5416 92.808C93.3656 92.808 91.6056 92.872 90.2616 93V91.08C93.5256 90.952 95.6056 90.408 96.5016 89.448C97.3976 88.424 97.2056 86.28 95.9256 83.016L78.0696 35.304L79.6056 34.056L62.9016 77.448C61.8776 80.008 61.2696 82.184 61.0776 83.976C60.8856 85.704 61.0456 87.08 61.5576 88.104C62.1336 89.128 63.0616 89.864 64.3416 90.312C65.6856 90.76 67.3496 91.016 69.3336 91.08V93C67.5416 92.872 65.6536 92.808 63.6696 92.808C61.7496 92.744 59.9576 92.712 58.2936 92.712C56.6936 92.712 55.3176 92.744 54.1656 92.808C53.0776 92.808 52.0536 92.872 51.0936 93V91.08C52.3736 90.76 53.6856 90.024 55.0296 88.872C56.3736 87.656 57.5896 85.608 58.6776 82.728L81.2376 24.552C81.4936 24.552 81.7496 24.552 82.0056 24.552C82.2616 24.552 82.5176 24.552 82.7736 24.552ZM94.4856 65.352V67.272H65.8776L66.8376 65.352H94.4856ZM169.399 25.032V26.952C167.415 27.208 165.495 27.848 163.639 28.872C161.783 29.896 159.927 31.592 158.071 33.96L139.543 57.672L141.655 52.968L164.695 85.224C165.783 86.824 166.967 88.072 168.247 88.968C169.527 89.864 171.159 90.568 173.143 91.08V93C171.607 92.872 169.687 92.808 167.383 92.808C165.143 92.744 163.223 92.712 161.623 92.712C160.535 92.712 159.191 92.744 157.591 92.808C156.055 92.808 154.103 92.872 151.735 93V91.08C153.911 90.952 155.287 90.568 155.863 89.928C156.439 89.288 156.215 88.232 155.191 86.76L141.175 65.64C139.895 63.656 138.743 62.184 137.719 61.224C136.759 60.2 135.735 59.528 134.647 59.208C133.623 58.888 132.311 58.696 130.711 58.632V56.712C133.399 56.648 135.639 56.136 137.431 55.176C139.287 54.152 140.823 52.872 142.039 51.336L151.255 39.624C153.367 36.936 154.807 34.664 155.575 32.808C156.343 30.952 156.311 29.544 155.479 28.584C154.647 27.56 152.887 27.016 150.199 26.952V25.032C151.415 25.096 152.663 25.16 153.943 25.224C155.223 25.224 156.471 25.256 157.687 25.32C158.967 25.32 160.151 25.32 161.239 25.32C162.903 25.32 164.439 25.288 165.847 25.224C167.255 25.16 168.439 25.096 169.399 25.032ZM138.871 25.032V26.952C136.695 27.016 135.031 27.272 133.879 27.72C132.791 28.104 132.055 28.872 131.671 30.024C131.287 31.112 131.095 32.84 131.095 35.208V82.824C131.095 85.128 131.287 86.856 131.671 88.008C132.055 89.16 132.791 89.928 133.879 90.312C135.031 90.696 136.695 90.952 138.871 91.08V93C137.399 92.872 135.543 92.808 133.303 92.808C131.127 92.744 128.919 92.712 126.679 92.712C124.183 92.712 121.847 92.744 119.671 92.808C117.495 92.808 115.735 92.872 114.391 93V91.08C116.567 90.952 118.199 90.696 119.287 90.312C120.439 89.928 121.207 89.16 121.591 88.008C121.975 86.856 122.167 85.128 122.167 82.824V35.208C122.167 32.84 121.975 31.112 121.591 30.024C121.207 28.872 120.439 28.104 119.287 27.72C118.199 27.272 116.567 27.016 114.391 26.952V25.032C115.735 25.096 117.495 25.16 119.671 25.224C121.847 25.288 124.183 25.32 126.679 25.32C128.919 25.32 131.127 25.288 133.303 25.224C135.543 25.16 137.399 25.096 138.871 25.032ZM237.586 25.032V26.952C235.41 27.016 233.746 27.336 232.594 27.912C231.506 28.488 230.77 29.416 230.386 30.696C230.002 31.976 229.81 33.8 229.81 36.168V93.48C229.426 93.48 229.042 93.48 228.658 93.48C228.338 93.48 227.986 93.48 227.602 93.48L187.282 31.176V81.864C187.282 84.168 187.474 85.992 187.858 87.336C188.306 88.616 189.138 89.544 190.354 90.12C191.634 90.632 193.522 90.952 196.018 91.08V93C194.866 92.872 193.362 92.808 191.506 92.808C189.65 92.744 187.89 92.712 186.226 92.712C184.626 92.712 182.994 92.744 181.33 92.808C179.73 92.808 178.386 92.872 177.298 93V91.08C179.474 90.952 181.106 90.632 182.194 90.12C183.346 89.544 184.114 88.616 184.498 87.336C184.882 85.992 185.074 84.168 185.074 81.864V35.208C185.074 32.84 184.882 31.112 184.498 30.024C184.114 28.872 183.346 28.104 182.194 27.72C181.106 27.272 179.474 27.016 177.298 26.952V25.032C178.386 25.096 179.73 25.16 181.33 25.224C182.994 25.288 184.626 25.32 186.226 25.32C187.634 25.32 188.978 25.288 190.258 25.224C191.538 25.16 192.69 25.096 193.714 25.032L227.602 77.256V36.168C227.602 33.8 227.378 31.976 226.93 30.696C226.546 29.416 225.714 28.488 224.434 27.912C223.218 27.336 221.362 27.016 218.866 26.952V25.032C220.018 25.096 221.522 25.16 223.378 25.224C225.298 25.288 227.058 25.32 228.658 25.32C230.322 25.32 231.954 25.288 233.554 25.224C235.218 25.16 236.562 25.096 237.586 25.032ZM297.495 25.032V26.952C296.279 27.208 295.063 28.008 293.847 29.352C292.631 30.632 291.287 32.68 289.815 35.496L270.423 73.896H268.791L246.327 32.424C245.047 30.056 243.959 28.584 243.063 28.008C242.231 27.368 241.463 27.048 240.759 27.048V25.032C242.039 25.096 243.351 25.16 244.695 25.224C246.103 25.288 247.607 25.32 249.207 25.32C251.319 25.32 253.559 25.32 255.927 25.32C258.359 25.256 260.599 25.16 262.647 25.032V27.048C261.047 27.048 259.639 27.24 258.423 27.624C257.207 28.008 256.407 28.712 256.023 29.736C255.639 30.76 255.927 32.2 256.887 34.056L273.111 65.16L272.343 65.736L285.111 40.296C286.903 36.776 287.767 34.056 287.703 32.136C287.703 30.216 286.967 28.904 285.495 28.2C284.023 27.432 281.943 27.016 279.255 26.952V25.032C281.111 25.096 282.999 25.16 284.919 25.224C286.839 25.288 288.631 25.32 290.295 25.32C291.959 25.32 293.335 25.288 294.423 25.224C295.511 25.16 296.535 25.096 297.495 25.032ZM274.743 63.816V82.824C274.743 85.128 274.935 86.856 275.319 88.008C275.703 89.16 276.439 89.928 277.527 90.312C278.679 90.696 280.343 90.952 282.519 91.08V93C281.047 92.872 279.191 92.808 276.951 92.808C274.775 92.744 272.567 92.712 270.327 92.712C267.831 92.712 265.495 92.744 263.319 92.808C261.143 92.808 259.383 92.872 258.039 93V91.08C260.215 90.952 261.847 90.696 262.935 90.312C264.087 89.928 264.855 89.16 265.239 88.008C265.623 86.856 265.815 85.128 265.815 82.824V63.144L270.999 69.096L274.743 63.816ZM322.342 23.976C325.542 23.976 327.974 24.36 329.638 25.128C331.302 25.832 332.774 26.632 334.054 27.528C334.822 27.976 335.43 28.328 335.878 28.584C336.39 28.776 336.87 28.872 337.318 28.872C337.958 28.872 338.406 28.52 338.662 27.816C338.982 27.112 339.238 26.056 339.43 24.648H341.638C341.574 25.736 341.478 27.048 341.35 28.584C341.286 30.056 341.222 32.04 341.158 34.536C341.158 36.968 341.158 40.2 341.158 44.232H338.95C338.758 41.16 338.086 38.216 336.934 35.4C335.782 32.584 334.086 30.28 331.846 28.488C329.67 26.696 326.79 25.8 323.206 25.8C319.814 25.8 316.998 26.824 314.758 28.872C312.582 30.92 311.494 33.608 311.494 36.936C311.494 39.816 312.23 42.248 313.702 44.232C315.174 46.152 317.126 47.912 319.558 49.512C322.054 51.048 324.742 52.712 327.622 54.504C330.95 56.552 333.894 58.6 336.454 60.648C339.078 62.632 341.126 64.84 342.598 67.272C344.134 69.704 344.902 72.648 344.902 76.104C344.902 80.2 343.974 83.592 342.118 86.28C340.262 88.968 337.798 90.984 334.726 92.328C331.654 93.672 328.262 94.344 324.55 94.344C321.158 94.344 318.47 93.96 316.486 93.192C314.502 92.424 312.806 91.624 311.398 90.792C309.99 89.896 308.902 89.448 308.134 89.448C307.494 89.448 307.014 89.8 306.694 90.504C306.438 91.208 306.214 92.264 306.022 93.672H303.814C303.942 92.328 304.006 90.76 304.006 88.968C304.07 87.112 304.102 84.712 304.102 81.768C304.166 78.824 304.198 75.112 304.198 70.632H306.406C306.662 74.472 307.366 78.056 308.518 81.384C309.734 84.712 311.558 87.4 313.99 89.448C316.486 91.432 319.782 92.424 323.878 92.424C325.99 92.424 327.974 92.008 329.83 91.176C331.75 90.28 333.318 88.904 334.534 87.048C335.75 85.128 336.358 82.664 336.358 79.656C336.358 77.032 335.718 74.76 334.438 72.84C333.222 70.856 331.494 69.032 329.254 67.368C327.014 65.64 324.39 63.88 321.382 62.088C318.374 60.232 315.558 58.344 312.934 56.424C310.31 54.504 308.198 52.296 306.598 49.8C305.062 47.24 304.294 44.168 304.294 40.584C304.294 36.808 305.126 33.704 306.79 31.272C308.518 28.776 310.758 26.952 313.51 25.8C316.262 24.584 319.206 23.976 322.342 23.976Z" fill="#EFE9D6"/>
</g>
<defs>
<clipPath id="clip0_12_2">
<rect width="350" height="99" fill="white"/>
</clipPath>
</defs>
</svg>
